<svg id="visual" viewBox="0 0 900 100" width="900" height="100" xmlns="http://www.w3.org/2000/svg" xmlns:xlink="http://www.w3.org/1999/xlink" version="1.1"><path d="M0 51L10 50.8C20 50.7 40 50.3 60 48.2C80 46 100 42 120 34.5C140 27 160 16 180 23.8C200 31.7 220 58.3 240 59.2C260 60 280 35 300 29.2C320 23.3 340 36.7 360 44.5C380 52.3 400 54.7 420 56.8C440 59 460 61 480 65.8C500 70.7 520 78.3 540 70.2C560 62 580 38 600 25.5C620 13 640 12 660 20.8C680 29.7 700 48.3 720 50.5C740 52.7 760 38.3 780 38.8C800 39.3 820 54.7 840 51.8C860 49 880 28 890 17.5L900 7L900 101L890 101C880 101 860 101 840 101C820 101 800 101 780 101C760 101 740 101 720 101C700 101 680 101 660 101C640 101 620 101 600 101C580 101 560 101 540 101C520 101 500 101 480 101C460 101 440 101 420 101C400 101 380 101 360 101C340 101 320 101 300 101C280 101 260 101 240 101C220 101 200 101 180 101C160 101 140 101 120 101C100 101 80 101 60 101C40 101 20 101 10 101L0 101Z" fill="#ffffff" stroke-linecap="round" stroke-linejoin="miter"></path></svg>