<svg xmlns="http://www.w3.org/2000/svg" viewBox="0 0 129.7 29.2" xml:space="preserve">
  <path d="M13.4 4.2V0H0v29.2h13.4V25C7.7 25 3 20.3 3 14.6S7.7 4.2 13.4 4.2zm0 0V25c5.7 0 10.4-4.6 10.4-10.4S19.1 4.2 13.4 4.2zm17.9 2.6h3v14.5h-3V6.8zm4.7 9.6c0-2.9 2.4-5.2 5.3-5.2s5.2 2.4 5.2 5.3-2.4 5.2-5.3 5.2-5.2-2.3-5.2-5.1c-.1-.2-.1-.2 0-.2zm7.5 0c0-1.3-1.1-2.3-2.3-2.2-1.3 0-2.3 1.1-2.2 2.3 0 1.2 1 2.2 2.3 2.2 1.2 0 2.2-1 2.3-2.2-.1 0-.1-.1-.1-.1zm14.8-5v9.4c0 3.3-2.6 4.7-5.2 4.7-1.9.2-3.7-.8-4.7-2.4l2.5-1.5c.4.8 1.3 1.3 2.3 1.2 1.1.1 2.1-.6 2.2-1.7v-1.3c-.7.9-1.8 1.3-2.9 1.3-2.8 0-5-2.2-5-5s2.2-5 5-5c1.1-.1 2.2.4 2.9 1.3v-1h2.9zm-2.9 4.7c.1-1.3-1-2.4-2.3-2.5-1.3-.1-2.4 1-2.5 2.3-.1 1.3 1 2.4 2.3 2.5h.1c1.2.1 2.3-.8 2.4-2.1v-.2zm4.6.3c0-2.9 2.4-5.2 5.3-5.2s5.2 2.4 5.2 5.3-2.4 5.2-5.3 5.2-5.2-2.3-5.2-5.1c-.1-.2-.1-.2 0-.2zm7.5 0c0-1.3-1.1-2.3-2.3-2.2-1.3 0-2.3 1.1-2.2 2.3 0 1.2 1 2.2 2.3 2.2 1.2 0 2.2-1 2.3-2.2-.1 0-.1-.1-.1-.1zm4.3-7.6c0-1 .8-1.8 1.8-1.8s1.8.8 1.8 1.8-.8 1.8-1.8 1.8c-1-.1-1.8-.9-1.8-1.8zm.3 2.6h3v9.9h-3v-9.9zm15.8 5c.1 2.8-2 5.1-4.7 5.2-1.1.1-2.2-.4-3-1.2v4.9h-3V11.4h3v.9c.8-.8 1.9-1.3 3-1.2 2.7.2 4.9 2.5 4.7 5.3 0-.1 0-.1 0 0zm-3 0c0-1.3-1.1-2.3-2.4-2.3-1.3 0-2.3 1.1-2.3 2.4 0 1.3 1.1 2.3 2.4 2.3 1.2.1 2.3-.9 2.4-2.2 0-.1 0-.2-.1-.2zm12.2 1.9c0 2.3-2 3.2-4.1 3.2-1.8.2-3.5-.8-4.3-2.4l2.6-1.5c.2.7.9 1.2 1.7 1.2.7 0 1.1-.2 1.1-.6 0-1.1-4.9-.5-4.9-3.9 0-2.2 1.8-3.2 3.9-3.2 1.6-.1 3.1.7 3.9 2.1l-2.6 1.4c-.2-.5-.8-.9-1.3-.9s-.8.2-.8.5c-.1 1.2 4.8.5 4.8 4.1zm10.8-6.9v9.9h-3v-.9c-.7.8-1.7 1.3-2.8 1.2-2 0-3.7-1.4-3.7-4.1v-6.1h3v5.7c0 .2 0 .5.1.7.2.7.9 1.1 1.6 1.1 1 .1 1.8-.7 1.9-1.6v-5.9h2.9zm17 3.8v6.1h-3v-5.8c0-1-.5-1.6-1.4-1.6s-1.6.7-1.6 1.9v5.6h-3v-5.8c0-1-.5-1.6-1.4-1.6s-1.6.7-1.6 1.9v5.6h-3v-9.9h3v.9c.6-.8 1.6-1.3 2.7-1.2 1-.1 2 .4 2.6 1.3.7-.9 1.8-1.4 2.9-1.3 2.4-.2 3.8 1.5 3.8 3.9zm2.6-3.9c1.2 0 2.2-1 2.2-2.2 0-1.2-1-2.2-2.2-2.2-1.2 0-2.2 1-2.2 2.2 0 1.3 1 2.2 2.2 2.2z" fill="#191919"/>
</svg>
