<svg xmlns="http://www.w3.org/2000/svg" viewBox="0 0 132 40" xml:space="preserve">
  <path d="M23.2 11.4h2v13.9h6v2h-8V11.4zm14.3 0c1.2 0 2.3.4 3.3 1 1 .7 1.8 1.6 2.2 2.7s.6 2.3.3 3.5c-.2 1.2-.8 2.2-1.6 3.1-.8.8-1.9 1.4-3.1 1.6-1.2.2-2.4.1-3.5-.3-1.1-.5-2-1.2-2.7-2.2-.7-1-1-2.1-1-3.3 0-.8.2-1.6.5-2.3.3-.7.7-1.4 1.3-1.9.6-.6 1.2-1 1.9-1.3.8-.5 1.6-.6 2.4-.6zm0 10c.8 0 1.6-.2 2.2-.7.7-.4 1.2-1.1 1.5-1.8.3-.7.4-1.5.2-2.3-.2-.8-.5-1.5-1.1-2-.6-.6-1.3-.9-2-1.1-.8-.2-1.6-.1-2.3.2-.7.3-1.4.8-1.8 1.5-.4.7-.7 1.4-.7 2.2 0 1.1.4 2.1 1.2 2.8s1.7 1.2 2.8 1.2zm-4 3.9h8v2h-8v-2zm25.6 2h-2v-1.4c-1.3.9-2.8 1.4-4.4 1.4-1.3 0-2.7-.3-3.8-1-1.2-.6-2.2-1.6-2.9-2.7-.7-1.1-1.2-2.4-1.3-3.8-.1-1.3.1-2.7.7-3.9.6-1.2 1.4-2.3 2.5-3.1 1.1-.8 2.3-1.3 3.7-1.5 1.3-.2 2.7 0 3.9.4 1.3.5 2.4 1.2 3.3 2.3l-1.5 1.3c-.7-.7-1.5-1.3-2.5-1.7-.9-.3-2-.4-2.9-.3-1 .2-1.9.6-2.7 1.2-.8.6-1.4 1.4-1.8 2.3-.4.9-.6 1.9-.5 2.9.1 1 .4 2 1 2.8.5.8 1.3 1.5 2.2 2 .9.5 1.9.7 2.9.7.8 0 1.7-.2 2.4-.5.8-.3 1.4-.8 2-1.5H52v-2h7.4l-.3 6.1zm7.3-15.9c1.2 0 2.3.4 3.3 1 1 .7 1.8 1.6 2.2 2.7.5 1.1.6 2.3.3 3.5-.2 1.2-.8 2.2-1.6 3.1-.8.8-1.9 1.4-3.1 1.6-1.2.2-2.4.1-3.5-.3-1.1-.5-2-1.2-2.7-2.2-.7-1-1-2.1-1-3.3 0-.8.1-1.6.4-2.3s.7-1.4 1.3-2c.6-.6 1.2-1 2-1.3.9-.4 1.6-.5 2.4-.5zm0 10c.8 0 1.6-.2 2.2-.7.7-.4 1.2-1.1 1.5-1.8.3-.7.4-1.5.2-2.3-.2-.8-.5-1.5-1.1-2-.6-.6-1.3-.9-2-1.1-.8-.2-1.6-.1-2.3.2-.7.3-1.4.8-1.8 1.5-.4.7-.7 1.4-.7 2.2 0 1.1.4 2.1 1.2 2.8.8.8 1.8 1.2 2.8 1.2zm-4 4h8v2h-8v-2zm12.2-14h2v15.9h-2V11.4zm4.7 0h2.3c.8-.1 1.7 0 2.5.3s1.5.7 2.2 1.2c.6.6 1.1 1.3 1.5 2 .3.8.5 1.6.5 2.4 0 .8-.2 1.7-.5 2.4-.3.8-.8 1.5-1.5 2-.6.6-1.4 1-2.2 1.2-.8.3-1.6.3-2.5.3h-.3v4h-2V11.4zm2 2v7.9h.3c.6.1 1.1 0 1.7-.1.5-.2 1-.4 1.5-.8.4-.4.8-.8 1-1.4.2-.5.4-1.1.4-1.7 0-.6-.1-1.1-.4-1.7-.2-.5-.6-1-1-1.4-.4-.4-.9-.7-1.5-.8-.5-.2-1.1-.2-1.7-.1-.1.1-.2.1-.3.1zm14.4-.9-1.5 1.2c-.3-.3-.6-.5-.9-.5-.4-.1-.7-.1-1.1 0-.3.1-.7.3-.9.6s-.4.6-.4 1v.2c0 .9.6 1.5 1.8 1.5 4.6.3 6.7 2.4 6.7 5.3v.2c-.1 1.1-.6 2.2-1.3 3.1s-1.7 1.5-2.7 1.9c-1.1.4-2.2.4-3.3.1-1.1-.3-2.1-.9-2.9-1.7l1.5-1.2c.4.4.8.7 1.3.9.5.2 1 .3 1.5.3 1 .1 1.9-.3 2.6-.9.7-.6 1.2-1.5 1.3-2.5v-.1c0-2.7-2.6-3.2-4.9-3.4-2-.2-3.5-1.5-3.5-3.4V15c.1-1 .5-1.9 1.3-2.6.7-.7 1.7-1 2.7-1 .5 0 1 .1 1.5.3.4.2.9.5 1.2.8zm11.5 12.8c2.5 0 4.5-2.7 4.5-6v-8h2v8c0 4.4-2.9 7.9-6.4 7.9-3.5 0-6.4-3.5-6.4-7.9v-8h2v8c-.1 3.3 1.8 6 4.3 6zm21.8 2h-2v-9.9l-4.6 6-4.6-6v9.9h-2V11.4l6.6 8.7 6.6-8.7v15.9zM13.6 9c0-1.4-.6-2.8-1.6-3.8S9.6 3.6 8.2 3.6s-2.8.5-3.9 1.6c-1 1-1.6 2.4-1.6 3.8v16.5l4.5 3.2v7.8h1.9v-7.8l4.5-3.2V9zm-1.9 9.2-2.6 2.6v-2.4l2.6-2.6v2.4zm-7-2.4 2.6 2.6v2.4l-2.6-2.6v-2.4zm7-2.7-3.5 3.5L4.7 13v-2.4l3.5 3.5 3.5-3.5v2.5zM8.2 5.5c.8 0 1.5.3 2.1.7.6.5 1.1 1.1 1.3 1.9l-3.4 3.4-3.4-3.4c.2-.8.6-1.4 1.2-1.9.7-.5 1.4-.8 2.2-.7zm-3.5 19v-3.6l2.6 2.6v2.9l-2.6-1.9zm4.4 1.8v-2.9l2.6-2.6v3.6l-2.6 1.9z" fill="#191919"/>
</svg>
