<svg xmlns="http://www.w3.org/2000/svg" viewBox="0 0 118.8 27.1" xml:space="preserve">
  <path d="M34.4 7.6h3v12.1h-3V7.6zm4.2 7.6c0-3 1.8-4.8 4.7-4.8s4.7 1.8 4.7 4.8-1.9 4.8-4.7 4.8-4.7-1.8-4.7-4.8zm6.3 0c0-1.6-.7-2.6-1.7-2.6s-1.7 1-1.7 2.6.6 2.6 1.7 2.6 1.7-.9 1.7-2.6zm4.2 5.2H52c.3.6.9 1 1.6.9 1.1 0 1.7-.6 1.7-1.5v-1.7h-.1c-.5 1.1-1.6 1.7-2.7 1.6-2.2 0-3.6-1.7-3.6-4.5s1.4-4.7 3.7-4.7c1.2 0 2.3.7 2.8 1.8v-1.7h3v9.1c0 2.2-1.9 3.5-4.8 3.5-2.7 0-4.4-1.2-4.5-2.8zm6.2-5.2c0-1.5-.7-2.4-1.7-2.4s-1.7.9-1.7 2.4.6 2.3 1.7 2.3 1.7-.8 1.7-2.3zm4.2 0c0-3 1.8-4.8 4.7-4.8 2.4-.2 4.5 1.7 4.7 4.1v.7c0 3-1.8 4.8-4.7 4.8s-4.7-1.8-4.7-4.8zm6.3 0c0-1.6-.7-2.6-1.7-2.6s-1.6 1-1.6 2.6.6 2.6 1.7 2.6 1.6-.9 1.6-2.6zM70 8.4c0-.8.6-1.5 1.5-1.6.8 0 1.5.6 1.6 1.5 0 .8-.6 1.5-1.5 1.6-.9 0-1.6-.6-1.6-1.4v-.1zm0 2.2h3v9.2h-3v-9.2zm13.9 4.6c0 3-1.3 4.7-3.6 4.7-1.2.1-2.3-.6-2.8-1.7h-.1v4.5h-3V10.6h3v1.6h.1c.5-1.1 1.6-1.8 2.8-1.8 2.2.1 3.6 1.8 3.6 4.8zm-3 0c0-1.5-.7-2.4-1.7-2.4s-1.7.9-1.7 2.4.7 2.4 1.7 2.4 1.7-.9 1.7-2.4zm8.1-4.8c2.5 0 4 1.2 4.1 3.1h-2.7c0-.6-.5-1.1-1.4-1.1s-1.2.3-1.2.8.3.6 1 .8l1.9.4c1.8.4 2.6 1.1 2.6 2.5 0 1.9-1.7 3.1-4.3 3.1s-4.2-1.2-4.3-3.1h2.9c.1.7.6 1.1 1.5 1.1s1.3-.3 1.3-.8-.3-.6-1-.7l-1.7-.4c-1.8-.4-2.7-1.3-2.7-2.7-.1-1.8 1.5-3 4-3zm14.3 9.4h-2.9V18h-.1c-.3 1.2-1.4 2-2.7 1.9-1.8.1-3.3-1.2-3.4-3V10.6h3v5.2c0 1.1.6 1.7 1.5 1.7.8 0 1.5-.7 1.5-1.5v-5.4h3l.1 9.2zm1.5-9.2h2.9v1.8h.1c.3-1.2 1.4-2 2.6-1.9 1.2-.1 2.4.8 2.6 2h.1c.4-1.2 1.5-2.1 2.8-2 1.6-.1 3 1.2 3 2.8v6.5h-3v-5.4c0-1-.4-1.5-1.3-1.5-.7 0-1.3.6-1.3 1.3V19.8h-2.8v-5.5c0-.9-.4-1.4-1.3-1.4-.7 0-1.3.6-1.3 1.3V19.8h-3l-.1-9.2zM26 8.2C25.5 7 24.8 5.9 24 5 19.3-.8 10.8-1.7 5 3.1s-6.6 13.3-1.9 19c.7.8 1.4 1.6 2.3 2.2 1 .8 2.1 1.4 3.2 1.8 1.6.7 3.3 1 5.1 1 7.5 0 13.5-6.1 13.5-13.5-.1-1.9-.4-3.7-1.2-5.4zM13.6 2.8c1.6 0 3.1.3 4.5 1-.3.1-.7.2-1.1.3-2.5.4-4.5 2.3-4.8 4.9-.2 1.4-1.3 2.5-2.7 2.6-2.5.3-4.5 2.3-4.9 4.8-.1.7-.3 1.3-.8 1.7C1.3 12.8 3.6 6.3 9 3.8c1.4-.7 3-1.1 4.6-1zM5.3 20.6c.1-.1.2-.2.4-.3.9-.9 1.5-2 1.6-3.2.1-.7.4-1.3.9-1.8s1.1-.8 1.8-.9c2.5-.4 4.5-2.3 4.9-4.9 0-.7.4-1.4.9-1.9s1.1-.8 1.8-.8c1.1-.2 2.2-.7 3-1.4.9.8 1.7 1.7 2.4 2.8 0 .1-.1.1-.1.1-.5.5-1.1.8-1.8.9-2.5.4-4.5 2.3-4.9 4.9-.1 1.4-1.3 2.5-2.7 2.7-2.6.2-4.6 2.2-5 4.7-.1.5-.2 1-.5 1.4-1-.6-1.9-1.4-2.7-2.3zm8.3 3.8c-1 0-2-.1-3-.4.3-.6.6-1.3.6-2 .1-1.4 1.3-2.5 2.7-2.7 2.5-.4 4.5-2.3 4.9-4.9.1-1.4 1.3-2.5 2.7-2.7.9-.1 1.8-.5 2.6-1 1.5 5.8-1.9 11.7-7.7 13.2-1 .4-1.9.5-2.8.5z" fill="#191919"/>
</svg>
