<svg xmlns="http://www.w3.org/2000/svg" viewBox="0 0 114.1 25.7" xml:space="preserve">
  <path d="M0 25.7h25.7V0H0v25.7zm20.7-15.3h-5.4V4.9h5.4v5.5zM4.9 4.9h5.4v10.4h10.4v5.4H4.9V4.9zM42.4 0c-2.5 0-5 .8-7.1 2.2-2.1 1.4-3.8 3.4-4.7 5.8-1 2.3-1.2 4.9-.7 7.4 1 5.1 5 9.1 10.1 10.1 2.5.5 5 .2 7.4-.7 2.3-1 4.3-2.6 5.8-4.7 1.4-2.1 2.2-4.6 2.2-7.1 0-3.4-1.4-6.7-3.8-9.1C49.2 1.4 45.9 0 42.4 0zm0 20.7c-1.6 0-3.1-.5-4.4-1.3-1.3-.9-2.3-2.1-2.9-3.5-.6-1.4-.8-3.1-.4-4.6.7-3.1 3.1-5.5 6.2-6.2 1.5-.3 3.1-.1 4.6.4 2.9 1.2 4.8 4.1 4.8 7.3 0 2.1-.8 4.1-2.3 5.6-1.5 1.5-3.5 2.3-5.6 2.3zM101.1 0c-2.5 0-5 .8-7.1 2.2-2.1 1.4-3.8 3.4-4.7 5.8-1 2.3-1.2 4.9-.7 7.4 1 5.1 5 9.1 10.1 10.1 2.5.5 5 .2 7.4-.7 2.3-1 4.3-2.6 5.8-4.7 1.4-2.1 2.2-4.6 2.2-7.1 0-3.4-1.4-6.7-3.8-9.1-2.4-2.5-5.7-3.9-9.2-3.9zm0 20.7c-1.6 0-3.1-.5-4.4-1.3-1.3-.9-2.3-2.1-2.9-3.5-.6-1.4-.8-3.1-.4-4.6.7-3.1 3.1-5.5 6.2-6.2 1.5-.3 3.1-.1 4.6.4 2.9 1.2 4.8 4.1 4.8 7.3 0 4.3-3.5 7.9-7.9 7.9.1 0 0 0 0 0zM71.7 0c-2.5 0-5 .8-7.1 2.2-2.1 1.4-3.8 3.4-4.7 5.8-1 2.3-1.2 4.9-.7 7.4 1 5.1 5 9.1 10.1 10.1 2.5.5 5 .2 7.4-.7 2.3-1 4.3-2.6 5.8-4.7 1.4-2.1 2.2-4.6 2.2-7.1-.1-7.1-5.9-12.9-13-13zm0 20.7c-1.5 0-2.9-.4-4.1-1.2-1.2-.8-2.2-1.8-2.9-3.1-.7-1.3-1-2.8-.8-4.2.1-1.4.6-2.8 1.5-4 .9-1.2 2-2.1 3.4-2.7 1.3-.5 2.7-.7 4.1-.5 1.4.2 2.8.8 3.9 1.8 1.1.9 1.9 2.1 2.4 3.5h-7.5v4.9h7.5c-.5 1.6-1.5 3-2.9 3.9-1.3 1.1-2.9 1.6-4.6 1.6z" fill="#191919"/>
</svg>
